<?xml version="1.0" encoding="UTF-8" standalone="no"?>
<!DOCTYPE svg PUBLIC "-//W3C//DTD SVG 1.1//EN"
 "http://www.w3.org/Graphics/SVG/1.1/DTD/svg11.dtd">
<!-- Generated by graphviz version 2.43.0 (0)
 -->
<!-- Title: G Pages: 1 -->
<svg width="3586pt" height="1835pt"
 viewBox="0.00 0.00 3585.50 1835.00" xmlns="http://www.w3.org/2000/svg" xmlns:xlink="http://www.w3.org/1999/xlink">
<g id="graph0" class="graph" transform="scale(1 1) rotate(0) translate(4 1831)">
<title>G</title>
<polygon fill="white" stroke="transparent" points="-4,4 -4,-1831 3581.5,-1831 3581.5,4 -4,4"/>
<!-- block_139802059989104 -->
<g id="node1" class="node">
<title>block_139802059989104</title>
<polygon fill="none" stroke="black" points="689.5,-1766 689.5,-1819 821.5,-1819 821.5,-1766 689.5,-1766"/>
<text text-anchor="start" x="697.5" y="-1803.8" font-family="consolas" font-size="14.00">0x2ae: SLT</text>
<text text-anchor="start" x="697.5" y="-1788.8" font-family="consolas" font-size="14.00">0x2af: SHA3</text>
<text text-anchor="start" x="697.5" y="-1773.8" font-family="consolas" font-size="14.00">0x2b0: INVALID</text>
</g>
<!-- block_139802060153136 -->
<g id="node2" class="node">
<title>block_139802060153136</title>
<polygon fill="none" stroke="black" points="839.5,-1774.5 839.5,-1810.5 979.5,-1810.5 979.5,-1774.5 839.5,-1774.5"/>
<text text-anchor="start" x="847.5" y="-1788.8" font-family="consolas" font-size="14.00">0x196: JUMPDEST</text>
</g>
<!-- block_139802059989296 -->
<g id="node3" class="node">
<title>block_139802059989296</title>
<polygon fill="none" stroke="red" points="935.5,-1189.5 935.5,-1225.5 1125.5,-1225.5 1125.5,-1189.5 935.5,-1189.5"/>
<text text-anchor="start" x="943.5" y="-1203.8" font-family="consolas" font-size="14.00">0x14a: REVERT(#0, #0)</text>
</g>
<!-- block_139802063307488 -->
<g id="node4" class="node">
<title>block_139802063307488</title>
<polygon fill="none" stroke="black" points="1119,-843.5 1119,-926.5 1408,-926.5 1408,-843.5 1119,-843.5"/>
<text text-anchor="start" x="1127" y="-911.3" font-family="consolas" font-size="14.00">0x9b: MSTORE(#0, #0)</text>
<text text-anchor="start" x="1127" y="-896.3" font-family="consolas" font-size="14.00">0xa0: %18 = SHA3(#0, #20)</text>
<text text-anchor="start" x="1127" y="-881.3" font-family="consolas" font-size="14.00">0xa1: %19 = ADD(%18, %14)</text>
<text text-anchor="start" x="1127" y="-866.3" font-family="consolas" font-size="14.00">0xa6: %20 = SLOAD(%19) // ADDRESS</text>
<text text-anchor="start" x="1127" y="-851.3" font-family="consolas" font-size="14.00">0xc5: JUMP(#55)</text>
</g>
<!-- block_139802060396144 -->
<g id="node37" class="node">
<title>block_139802060396144</title>
<polygon fill="none" stroke="black" points="1164.5,-767.5 1164.5,-805.5 1362.5,-805.5 1362.5,-767.5 1164.5,-767.5"/>
<text text-anchor="start" x="1172.5" y="-790.3" font-family="consolas" font-size="14.00">0x58: %24 = MLOAD(#40)</text>
<text text-anchor="start" x="1172.5" y="-775.3" font-family="consolas" font-size="14.00">0x61: JUMP(#1ef)</text>
</g>
<!-- block_139802063307488&#45;&gt;block_139802060396144 -->
<g id="edge1" class="edge">
<title>block_139802063307488&#45;&gt;block_139802060396144</title>
<path fill="none" stroke="black" d="M1263.5,-843.35C1263.5,-834.08 1263.5,-824.43 1263.5,-815.8"/>
<polygon fill="black" stroke="black" points="1267,-815.54 1263.5,-805.54 1260,-815.54 1267,-815.54"/>
</g>
<!-- block_139802059990160 -->
<g id="node5" class="node">
<title>block_139802059990160</title>
<polygon fill="none" stroke="black" points="676,-1293.5 676,-1361.5 907,-1361.5 907,-1293.5 676,-1293.5"/>
<text text-anchor="start" x="684" y="-1346.3" font-family="consolas" font-size="14.00">0x72: %31 = CALLDATASIZE()</text>
<text text-anchor="start" x="684" y="-1331.3" font-family="consolas" font-size="14.00">0x73: %32 = SUB(%31, #4)</text>
<text text-anchor="start" x="684" y="-1316.3" font-family="consolas" font-size="14.00">0x75: %33 = ADD(#4, %32)</text>
<text text-anchor="start" x="684" y="-1301.3" font-family="consolas" font-size="14.00">0x7f: JUMP(#236)</text>
</g>
<!-- block_139802059991216 -->
<g id="node14" class="node">
<title>block_139802059991216</title>
<polygon fill="none" stroke="black" points="676,-1173.5 676,-1241.5 907,-1241.5 907,-1173.5 676,-1173.5"/>
<text text-anchor="start" x="684" y="-1226.3" font-family="consolas" font-size="14.00">0x23d: %34 = SUB(%33, #4)</text>
<text text-anchor="start" x="684" y="-1211.3" font-family="consolas" font-size="14.00">0x23e: %35 = SLT(%34, #20)</text>
<text text-anchor="start" x="684" y="-1196.3" font-family="consolas" font-size="14.00">0x23f: %36 = ISZERO(%35)</text>
<text text-anchor="start" x="684" y="-1181.3" font-family="consolas" font-size="14.00">0x243: JUMPI(#24c, %36)</text>
</g>
<!-- block_139802059990160&#45;&gt;block_139802059991216 -->
<g id="edge2" class="edge">
<title>block_139802059990160&#45;&gt;block_139802059991216</title>
<path fill="none" stroke="black" d="M791.5,-1293.32C791.5,-1280.5 791.5,-1265.65 791.5,-1252"/>
<polygon fill="black" stroke="black" points="795,-1251.84 791.5,-1241.84 788,-1251.84 795,-1251.84"/>
</g>
<!-- block_139802060219536 -->
<g id="node6" class="node">
<title>block_139802060219536</title>
<polygon fill="none" stroke="black" points="739.5,-0.5 739.5,-36.5 855.5,-36.5 855.5,-0.5 739.5,-0.5"/>
<text text-anchor="start" x="747.5" y="-14.8" font-family="consolas" font-size="14.00">0x86: STOP()</text>
</g>
<!-- block_139802059990208 -->
<g id="node7" class="node">
<title>block_139802059990208</title>
<polygon fill="none" stroke="black" points="515,-1083.5 515,-1121.5 862,-1121.5 862,-1083.5 515,-1083.5"/>
<text text-anchor="start" x="523" y="-1106.3" font-family="consolas" font-size="14.00">0x225: %38 = CALLDATALOAD(#4) // ADDRESS</text>
<text text-anchor="start" x="523" y="-1091.3" font-family="consolas" font-size="14.00">0x22f: JUMP(#20a)</text>
</g>
<!-- block_139802060033904 -->
<g id="node25" class="node">
<title>block_139802060033904</title>
<polygon fill="none" stroke="black" points="577,-986 577,-1024 800,-1024 800,-986 577,-986"/>
<text text-anchor="start" x="585" y="-1008.8" font-family="consolas" font-size="14.00">0x215: %40 = EQ(%38, %38)</text>
<text text-anchor="start" x="585" y="-993.8" font-family="consolas" font-size="14.00">0x219: JUMPI(#21e, %40)</text>
</g>
<!-- block_139802059990208&#45;&gt;block_139802060033904 -->
<g id="edge3" class="edge">
<title>block_139802059990208&#45;&gt;block_139802060033904</title>
<path fill="none" stroke="black" d="M688.5,-1083.09C688.5,-1069.26 688.5,-1050.07 688.5,-1034.3"/>
<polygon fill="black" stroke="black" points="692,-1034.03 688.5,-1024.03 685,-1034.03 692,-1034.03"/>
</g>
<!-- block_139802060072224 -->
<g id="node8" class="node">
<title>block_139802060072224</title>
<polygon fill="none" stroke="black" points="101.5,-851 101.5,-919 811.5,-919 811.5,-851 101.5,-851"/>
<text text-anchor="start" x="109.5" y="-903.8" font-family="consolas" font-size="14.00">0xe6: %42 = MLOAD(#40)</text>
<text text-anchor="start" x="109.5" y="-888.8" font-family="consolas" font-size="14.00">0xf2: MSTORE(%42, #70a0823100000000000000000000000000000000000000000000000000000000)</text>
<text text-anchor="start" x="109.5" y="-873.8" font-family="consolas" font-size="14.00">0xf5: %45 = ADD(#4, %42)</text>
<text text-anchor="start" x="109.5" y="-858.8" font-family="consolas" font-size="14.00">0xfe: JUMP(#1ef)</text>
</g>
<!-- block_139802060073712 -->
<g id="node18" class="node">
<title>block_139802060073712</title>
<polygon fill="none" stroke="red" points="341,-767.5 341,-805.5 572,-805.5 572,-767.5 341,-767.5"/>
<text text-anchor="start" x="349" y="-790.3" font-family="consolas" font-size="14.00">0x1f5: %46 = ADD(%45, #20)</text>
<text text-anchor="start" x="349" y="-775.3" font-family="consolas" font-size="14.00">0x203: JUMP(#1e0)</text>
</g>
<!-- block_139802060072224&#45;&gt;block_139802060073712 -->
<g id="edge4" class="edge">
<title>block_139802060072224&#45;&gt;block_139802060073712</title>
<path fill="none" stroke="black" d="M456.5,-850.79C456.5,-839.42 456.5,-826.82 456.5,-815.87"/>
<polygon fill="black" stroke="black" points="460,-815.58 456.5,-805.58 453,-815.58 460,-815.58"/>
</g>
<!-- block_139802060219680 -->
<g id="node9" class="node">
<title>block_139802060219680</title>
<polygon fill="none" stroke="red" points="873.5,-0.5 873.5,-36.5 1063.5,-36.5 1063.5,-0.5 873.5,-0.5"/>
<text text-anchor="start" x="881.5" y="-14.8" font-family="consolas" font-size="14.00">0x168: REVERT(#0, #0)</text>
</g>
<!-- block_139802060481920 -->
<g id="node10" class="node">
<title>block_139802060481920</title>
<polygon fill="none" stroke="red" points="1160.5,-578 1160.5,-616 1366.5,-616 1366.5,-578 1160.5,-578"/>
<text text-anchor="start" x="1168.5" y="-600.8" font-family="consolas" font-size="14.00">0x1eb: MSTORE(%24, %20)</text>
<text text-anchor="start" x="1168.5" y="-585.8" font-family="consolas" font-size="14.00">0x1ee: JUMP(#204)</text>
</g>
<!-- block_139802060482736 -->
<g id="node13" class="node">
<title>block_139802060482736</title>
<polygon fill="none" stroke="black" points="1152,-398 1152,-451 1375,-451 1375,-398 1152,-398"/>
<text text-anchor="start" x="1160" y="-435.8" font-family="consolas" font-size="14.00">0x65: %28 = MLOAD(#40)</text>
<text text-anchor="start" x="1160" y="-420.8" font-family="consolas" font-size="14.00">0x68: %29 = SUB(%25, %28)</text>
<text text-anchor="start" x="1160" y="-405.8" font-family="consolas" font-size="14.00">0x6a: RETURN(%28, %29)</text>
</g>
<!-- block_139802060481920&#45;&gt;block_139802060482736 -->
<g id="edge5" class="edge">
<title>block_139802060481920&#45;&gt;block_139802060482736</title>
<path fill="none" stroke="black" d="M1263.5,-577.75C1263.5,-550.12 1263.5,-497.1 1263.5,-461.5"/>
<polygon fill="black" stroke="black" points="1267,-461.07 1263.5,-451.07 1260,-461.07 1267,-461.07"/>
</g>
<!-- block_139802060220256 -->
<g id="node11" class="node">
<title>block_139802060220256</title>
<polygon fill="none" stroke="red" points="571.5,-165.5 571.5,-201.5 761.5,-201.5 761.5,-165.5 571.5,-165.5"/>
<text text-anchor="start" x="579.5" y="-179.8" font-family="consolas" font-size="14.00">0x14a: REVERT(#0, #0)</text>
</g>
<!-- block_139802060351664 -->
<g id="node12" class="node">
<title>block_139802060351664</title>
<polygon fill="none" stroke="black" points="1205.5,-1774.5 1205.5,-1810.5 1345.5,-1810.5 1345.5,-1774.5 1205.5,-1774.5"/>
<text text-anchor="start" x="1213.5" y="-1788.8" font-family="consolas" font-size="14.00">0x24b: JUMPDEST</text>
</g>
<!-- block_139802059991216&#45;&gt;block_139802059990208 -->
<g id="edge7" class="edge">
<title>block_139802059991216&#45;&gt;block_139802059990208</title>
<path fill="none" stroke="darkgreen" d="M758.34,-1173.34C743.85,-1158.85 727.14,-1142.14 713.69,-1128.69"/>
<polygon fill="darkgreen" stroke="darkgreen" points="716.14,-1126.19 706.59,-1121.59 711.19,-1131.14 716.14,-1126.19"/>
<text text-anchor="middle" x="749" y="-1143.8" font-family="consolas" font-size="14.00"> t</text>
</g>
<!-- block_139802060222416 -->
<g id="node26" class="node">
<title>block_139802060222416</title>
<polygon fill="none" stroke="red" points="880.5,-1084.5 880.5,-1120.5 1070.5,-1120.5 1070.5,-1084.5 880.5,-1084.5"/>
<text text-anchor="start" x="888.5" y="-1098.8" font-family="consolas" font-size="14.00">0x14a: REVERT(#0, #0)</text>
</g>
<!-- block_139802059991216&#45;&gt;block_139802060222416 -->
<g id="edge6" class="edge">
<title>block_139802059991216&#45;&gt;block_139802060222416</title>
<path fill="none" stroke="red" d="M850.48,-1173.49C878.47,-1157.82 911.16,-1139.51 936.1,-1125.56"/>
<polygon fill="red" stroke="red" points="937.89,-1128.56 944.91,-1120.62 934.47,-1122.45 937.89,-1128.56"/>
<text text-anchor="middle" x="914" y="-1143.8" font-family="consolas" font-size="14.00"> f</text>
</g>
<!-- block_139802060220688 -->
<g id="node15" class="node">
<title>block_139802060220688</title>
<polygon fill="none" stroke="black" points="0,-390.5 0,-458.5 297,-458.5 297,-390.5 0,-390.5"/>
<text text-anchor="start" x="8" y="-443.3" font-family="consolas" font-size="14.00">0x115: %68 = RETURNDATASIZE()</text>
<text text-anchor="start" x="8" y="-428.3" font-family="consolas" font-size="14.00">0x119: RETURNDATACOPY(#0, #0, %68)</text>
<text text-anchor="start" x="8" y="-413.3" font-family="consolas" font-size="14.00">0x11a: %69 = RETURNDATASIZE()</text>
<text text-anchor="start" x="8" y="-398.3" font-family="consolas" font-size="14.00">0x11d: REVERT(#0, %69)</text>
</g>
<!-- block_139802060351760 -->
<g id="node16" class="node">
<title>block_139802060351760</title>
<polygon fill="none" stroke="black" points="1143.5,-1188.5 1143.5,-1226.5 1399.5,-1226.5 1399.5,-1188.5 1143.5,-1188.5"/>
<text text-anchor="start" x="1151.5" y="-1211.3" font-family="consolas" font-size="14.00">0x170: %14 = CALLDATALOAD(#4)</text>
<text text-anchor="start" x="1151.5" y="-1196.3" font-family="consolas" font-size="14.00">0x17a: JUMP(#155)</text>
</g>
<!-- block_139802060353296 -->
<g id="node24" class="node">
<title>block_139802060353296</title>
<polygon fill="none" stroke="red" points="1160,-1083.5 1160,-1121.5 1383,-1121.5 1383,-1083.5 1160,-1083.5"/>
<text text-anchor="start" x="1168" y="-1106.3" font-family="consolas" font-size="14.00">0x160: %15 = EQ(%14, %14)</text>
<text text-anchor="start" x="1168" y="-1091.3" font-family="consolas" font-size="14.00">0x164: JUMPI(#169, %15)</text>
</g>
<!-- block_139802060351760&#45;&gt;block_139802060353296 -->
<g id="edge8" class="edge">
<title>block_139802060351760&#45;&gt;block_139802060353296</title>
<path fill="none" stroke="black" d="M1271.5,-1188.09C1271.5,-1172.49 1271.5,-1149.87 1271.5,-1131.94"/>
<polygon fill="black" stroke="black" points="1275,-1131.75 1271.5,-1121.75 1268,-1131.75 1275,-1131.75"/>
</g>
<!-- block_139802060483168 -->
<g id="node17" class="node">
<title>block_139802060483168</title>
<polygon fill="none" stroke="black" points="1425.5,-867 1425.5,-903 1607.5,-903 1607.5,-867 1425.5,-867"/>
<text text-anchor="start" x="1433.5" y="-881.3" font-family="consolas" font-size="14.00">0x96: REVERT(#0, #0)</text>
</g>
<!-- block_139802060110912 -->
<g id="node46" class="node">
<title>block_139802060110912</title>
<polygon fill="none" stroke="red" points="353.5,-691.5 353.5,-729.5 559.5,-729.5 559.5,-691.5 353.5,-691.5"/>
<text text-anchor="start" x="361.5" y="-714.3" font-family="consolas" font-size="14.00">0x1eb: MSTORE(%45, %38)</text>
<text text-anchor="start" x="361.5" y="-699.3" font-family="consolas" font-size="14.00">0x1ee: JUMP(#204)</text>
</g>
<!-- block_139802060073712&#45;&gt;block_139802060110912 -->
<g id="edge9" class="edge">
<title>block_139802060073712&#45;&gt;block_139802060110912</title>
<path fill="none" stroke="black" d="M456.5,-767.21C456.5,-758.96 456.5,-749.04 456.5,-739.86"/>
<polygon fill="black" stroke="black" points="460,-739.58 456.5,-729.58 453,-739.58 460,-739.58"/>
</g>
<!-- block_139802060221216 -->
<g id="node19" class="node">
<title>block_139802060221216</title>
<polygon fill="none" stroke="red" points="925.5,-1309.5 925.5,-1345.5 1107.5,-1345.5 1107.5,-1309.5 925.5,-1309.5"/>
<text text-anchor="start" x="933.5" y="-1323.8" font-family="consolas" font-size="14.00">0x3a: REVERT(#0, #0)</text>
</g>
<!-- block_139802060221264 -->
<g id="node20" class="node">
<title>block_139802060221264</title>
<polygon fill="none" stroke="black" points="829.5,-867 829.5,-903 1019.5,-903 1019.5,-867 829.5,-867"/>
<text text-anchor="start" x="837.5" y="-881.3" font-family="consolas" font-size="14.00">0x21d: REVERT(#0, #0)</text>
</g>
<!-- block_139802060155824 -->
<g id="node21" class="node">
<title>block_139802060155824</title>
<polygon fill="none" stroke="black" points="571,-254.5 571,-322.5 802,-322.5 802,-254.5 571,-254.5"/>
<text text-anchor="start" x="579" y="-307.3" font-family="consolas" font-size="14.00">0x27f: %62 = SUB(%61, %55)</text>
<text text-anchor="start" x="579" y="-292.3" font-family="consolas" font-size="14.00">0x280: %63 = SLT(%62, #20)</text>
<text text-anchor="start" x="579" y="-277.3" font-family="consolas" font-size="14.00">0x281: %64 = ISZERO(%63)</text>
<text text-anchor="start" x="579" y="-262.3" font-family="consolas" font-size="14.00">0x285: JUMPI(#28e, %64)</text>
</g>
<!-- block_139802060155824&#45;&gt;block_139802060220256 -->
<g id="edge10" class="edge">
<title>block_139802060155824&#45;&gt;block_139802060220256</title>
<path fill="none" stroke="red" d="M680.06,-254.34C677.38,-240.51 674.3,-224.66 671.75,-211.55"/>
<polygon fill="red" stroke="red" points="675.19,-210.87 669.84,-201.72 668.31,-212.2 675.19,-210.87"/>
<text text-anchor="middle" x="685" y="-224.8" font-family="consolas" font-size="14.00"> f</text>
</g>
<!-- block_139802060182864 -->
<g id="node33" class="node">
<title>block_139802060182864</title>
<polygon fill="none" stroke="black" points="779.5,-164.5 779.5,-202.5 985.5,-202.5 985.5,-164.5 779.5,-164.5"/>
<text text-anchor="start" x="787.5" y="-187.3" font-family="consolas" font-size="14.00">0x267: %66 = MLOAD(%55)</text>
<text text-anchor="start" x="787.5" y="-172.3" font-family="consolas" font-size="14.00">0x271: JUMP(#155)</text>
</g>
<!-- block_139802060155824&#45;&gt;block_139802060182864 -->
<g id="edge11" class="edge">
<title>block_139802060155824&#45;&gt;block_139802060182864</title>
<path fill="none" stroke="darkgreen" d="M749.32,-254.49C778.57,-239.12 812.64,-221.21 838.99,-207.36"/>
<polygon fill="darkgreen" stroke="darkgreen" points="840.75,-210.39 847.98,-202.64 837.5,-204.2 840.75,-210.39"/>
<text text-anchor="middle" x="817" y="-224.8" font-family="consolas" font-size="14.00"> t</text>
</g>
<!-- block_139802060483936 -->
<g id="node22" class="node">
<title>block_139802060483936</title>
<polygon fill="none" stroke="black" points="865.5,-1428.5 865.5,-1466.5 1121.5,-1466.5 1121.5,-1428.5 865.5,-1428.5"/>
<text text-anchor="start" x="873.5" y="-1451.3" font-family="consolas" font-size="14.00">0x31: %30 = EQ(#7c3e7ab7, %5)</text>
<text text-anchor="start" x="873.5" y="-1436.3" font-family="consolas" font-size="14.00">0x35: JUMPI(#6b, %30)</text>
</g>
<!-- block_139802060483936&#45;&gt;block_139802059990160 -->
<g id="edge13" class="edge">
<title>block_139802060483936&#45;&gt;block_139802059990160</title>
<path fill="none" stroke="darkgreen" d="M962.38,-1428.32C934.43,-1411.99 892.46,-1387.48 857.12,-1366.83"/>
<polygon fill="darkgreen" stroke="darkgreen" points="858.69,-1363.69 848.29,-1361.67 855.16,-1369.74 858.69,-1363.69"/>
<text text-anchor="middle" x="914" y="-1383.8" font-family="consolas" font-size="14.00"> t</text>
</g>
<!-- block_139802060483936&#45;&gt;block_139802060221216 -->
<g id="edge12" class="edge">
<title>block_139802060483936&#45;&gt;block_139802060221216</title>
<path fill="none" stroke="red" d="M997.04,-1428.32C1000.83,-1408.9 1006.87,-1377.9 1011.22,-1355.6"/>
<polygon fill="red" stroke="red" points="1014.66,-1356.22 1013.14,-1345.74 1007.79,-1354.88 1014.66,-1356.22"/>
<text text-anchor="middle" x="1015" y="-1383.8" font-family="consolas" font-size="14.00"> f</text>
</g>
<!-- block_139802060483984 -->
<g id="node23" class="node">
<title>block_139802060483984</title>
<polygon fill="none" stroke="red" points="1111.5,-987 1111.5,-1023 1301.5,-1023 1301.5,-987 1111.5,-987"/>
<text text-anchor="start" x="1119.5" y="-1001.3" font-family="consolas" font-size="14.00">0x168: REVERT(#0, #0)</text>
</g>
<!-- block_139802060353296&#45;&gt;block_139802060483984 -->
<g id="edge14" class="edge">
<title>block_139802060353296&#45;&gt;block_139802060483984</title>
<path fill="none" stroke="red" d="M1258.97,-1083.09C1249.01,-1068.45 1234.96,-1047.82 1223.91,-1031.58"/>
<polygon fill="red" stroke="red" points="1226.64,-1029.37 1218.12,-1023.07 1220.85,-1033.31 1226.64,-1029.37"/>
<text text-anchor="middle" x="1253" y="-1053.8" font-family="consolas" font-size="14.00"> f</text>
</g>
<!-- block_139802060396432 -->
<g id="node41" class="node">
<title>block_139802060396432</title>
<polygon fill="none" stroke="black" points="1320,-978.5 1320,-1031.5 1535,-1031.5 1535,-978.5 1320,-978.5"/>
<text text-anchor="start" x="1328" y="-1016.3" font-family="consolas" font-size="14.00">0x8c: %16 = SLOAD(#0)</text>
<text text-anchor="start" x="1328" y="-1001.3" font-family="consolas" font-size="14.00">0x8e: %17 = LT(%14, %16)</text>
<text text-anchor="start" x="1328" y="-986.3" font-family="consolas" font-size="14.00">0x92: JUMPI(#97, %17)</text>
</g>
<!-- block_139802060353296&#45;&gt;block_139802060396432 -->
<g id="edge15" class="edge">
<title>block_139802060353296&#45;&gt;block_139802060396432</title>
<path fill="none" stroke="darkgreen" d="M1301.21,-1083.31C1322.64,-1070.19 1352.09,-1052.17 1377.16,-1036.82"/>
<polygon fill="darkgreen" stroke="darkgreen" points="1379.12,-1039.72 1385.82,-1031.51 1375.47,-1033.75 1379.12,-1039.72"/>
<text text-anchor="middle" x="1362" y="-1053.8" font-family="consolas" font-size="14.00"> t</text>
</g>
<!-- block_139802060033904&#45;&gt;block_139802060072224 -->
<g id="edge17" class="edge">
<title>block_139802060033904&#45;&gt;block_139802060072224</title>
<path fill="none" stroke="darkgreen" d="M653.01,-985.95C620.56,-969.44 571.52,-944.5 530.55,-923.66"/>
<polygon fill="darkgreen" stroke="darkgreen" points="531.9,-920.42 521.4,-919.01 528.73,-926.66 531.9,-920.42"/>
<text text-anchor="middle" x="609" y="-948.8" font-family="consolas" font-size="14.00"> t</text>
</g>
<!-- block_139802060033904&#45;&gt;block_139802060221264 -->
<g id="edge16" class="edge">
<title>block_139802060033904&#45;&gt;block_139802060221264</title>
<path fill="none" stroke="red" d="M724.6,-985.95C766.67,-964.91 836.15,-930.17 881.12,-907.69"/>
<polygon fill="red" stroke="red" points="882.94,-910.69 890.32,-903.09 879.81,-904.43 882.94,-910.69"/>
<text text-anchor="middle" x="815" y="-948.8" font-family="consolas" font-size="14.00"> f</text>
</g>
<!-- block_139802060296352 -->
<g id="node27" class="node">
<title>block_139802060296352</title>
<polygon fill="none" stroke="black" points="997.5,-1758.5 997.5,-1826.5 1187.5,-1826.5 1187.5,-1758.5 997.5,-1758.5"/>
<text text-anchor="start" x="1005.5" y="-1811.3" font-family="consolas" font-size="14.00">0x4: MSTORE(#40, #80)</text>
<text text-anchor="start" x="1005.5" y="-1796.3" font-family="consolas" font-size="14.00">0x5: %0 = CALLVALUE()</text>
<text text-anchor="start" x="1005.5" y="-1781.3" font-family="consolas" font-size="14.00">0x7: %1 = ISZERO(%0)</text>
<text text-anchor="start" x="1005.5" y="-1766.3" font-family="consolas" font-size="14.00">0xb: JUMPI(#10, %1)</text>
</g>
<!-- block_139802060296880 -->
<g id="node28" class="node">
<title>block_139802060296880</title>
<polygon fill="none" stroke="black" points="829,-1653.5 829,-1706.5 1052,-1706.5 1052,-1653.5 829,-1653.5"/>
<text text-anchor="start" x="837" y="-1691.3" font-family="consolas" font-size="14.00">0x14: %2 = CALLDATASIZE()</text>
<text text-anchor="start" x="837" y="-1676.3" font-family="consolas" font-size="14.00">0x15: %3 = LT(%2, #4)</text>
<text text-anchor="start" x="837" y="-1661.3" font-family="consolas" font-size="14.00">0x19: JUMPI(#36, %3)</text>
</g>
<!-- block_139802060296352&#45;&gt;block_139802060296880 -->
<g id="edge19" class="edge">
<title>block_139802060296352&#45;&gt;block_139802060296880</title>
<path fill="none" stroke="darkgreen" d="M1046.89,-1758.35C1027,-1743.88 1003.78,-1727 984.12,-1712.71"/>
<polygon fill="darkgreen" stroke="darkgreen" points="986.07,-1709.8 975.93,-1706.75 981.96,-1715.47 986.07,-1709.8"/>
<text text-anchor="middle" x="1030" y="-1728.8" font-family="consolas" font-size="14.00"> t</text>
</g>
<!-- block_139802059748112 -->
<g id="node29" class="node">
<title>block_139802059748112</title>
<polygon fill="none" stroke="black" points="1070,-1662 1070,-1698 1243,-1698 1243,-1662 1070,-1662"/>
<text text-anchor="start" x="1078" y="-1676.3" font-family="consolas" font-size="14.00">0xf: REVERT(#0, #0)</text>
</g>
<!-- block_139802060296352&#45;&gt;block_139802059748112 -->
<g id="edge18" class="edge">
<title>block_139802060296352&#45;&gt;block_139802059748112</title>
<path fill="none" stroke="red" d="M1111.7,-1758.35C1121.22,-1741.92 1132.54,-1722.38 1141.42,-1707.04"/>
<polygon fill="red" stroke="red" points="1144.61,-1708.51 1146.59,-1698.11 1138.55,-1705.01 1144.61,-1708.51"/>
<text text-anchor="middle" x="1138" y="-1728.8" font-family="consolas" font-size="14.00"> f</text>
</g>
<!-- block_139802060297696 -->
<g id="node35" class="node">
<title>block_139802060297696</title>
<polygon fill="none" stroke="red" points="829.5,-1549.5 829.5,-1585.5 1011.5,-1585.5 1011.5,-1549.5 829.5,-1549.5"/>
<text text-anchor="start" x="837.5" y="-1563.8" font-family="consolas" font-size="14.00">0x3a: REVERT(#0, #0)</text>
</g>
<!-- block_139802060296880&#45;&gt;block_139802060297696 -->
<g id="edge21" class="edge">
<title>block_139802060296880&#45;&gt;block_139802060297696</title>
<path fill="none" stroke="darkgreen" d="M935.86,-1653.37C932.75,-1636.16 928.65,-1613.5 925.46,-1595.93"/>
<polygon fill="darkgreen" stroke="darkgreen" points="928.84,-1594.95 923.62,-1585.74 921.96,-1596.2 928.84,-1594.95"/>
<text text-anchor="middle" x="941" y="-1623.8" font-family="consolas" font-size="14.00"> t</text>
</g>
<!-- block_139802060298224 -->
<g id="node42" class="node">
<title>block_139802060298224</title>
<polygon fill="none" stroke="black" points="1030,-1533.5 1030,-1601.5 1269,-1601.5 1269,-1533.5 1030,-1533.5"/>
<text text-anchor="start" x="1038" y="-1586.3" font-family="consolas" font-size="14.00">0x1c: %4 = CALLDATALOAD(#0)</text>
<text text-anchor="start" x="1038" y="-1571.3" font-family="consolas" font-size="14.00">0x1f: %5 = SHR(#e0, %4)</text>
<text text-anchor="start" x="1038" y="-1556.3" font-family="consolas" font-size="14.00">0x26: %6 = EQ(#25e7c27, %5)</text>
<text text-anchor="start" x="1038" y="-1541.3" font-family="consolas" font-size="14.00">0x2a: JUMPI(#3b, %6)</text>
</g>
<!-- block_139802060296880&#45;&gt;block_139802060298224 -->
<g id="edge20" class="edge">
<title>block_139802060296880&#45;&gt;block_139802060298224</title>
<path fill="none" stroke="red" d="M988.97,-1653.37C1015.42,-1639.39 1048.66,-1621.81 1078.03,-1606.29"/>
<polygon fill="red" stroke="red" points="1079.8,-1609.31 1087.01,-1601.54 1076.53,-1603.12 1079.8,-1609.31"/>
<text text-anchor="middle" x="1060" y="-1623.8" font-family="consolas" font-size="14.00"> f</text>
</g>
<!-- block_139802060444624 -->
<g id="node30" class="node">
<title>block_139802060444624</title>
<polygon fill="none" stroke="black" points="1364,-1766 1364,-1819 1587,-1819 1587,-1766 1364,-1766"/>
<text text-anchor="start" x="1372" y="-1803.8" font-family="consolas" font-size="14.00">0x2a6: LOG2</text>
<text text-anchor="start" x="1372" y="-1788.8" font-family="consolas" font-size="14.00">0x2a7: PUSH5 0x6970667358</text>
<text text-anchor="start" x="1372" y="-1773.8" font-family="consolas" font-size="14.00">0x2ad: INVALID</text>
</g>
<!-- block_139802060395712 -->
<g id="node31" class="node">
<title>block_139802060395712</title>
<polygon fill="none" stroke="black" points="1605.5,-1773.5 1605.5,-1811.5 2117.5,-1811.5 2117.5,-1773.5 1605.5,-1773.5"/>
<text text-anchor="start" x="1613.5" y="-1796.3" font-family="consolas" font-size="14.00">0x2b5: PUSH22 0x5098238de1e7c9cf8cff769c5158f03168e682982385</text>
<text text-anchor="start" x="1613.5" y="-1781.3" font-family="consolas" font-size="14.00">0x2cc: INVALID</text>
</g>
<!-- block_139802060108992 -->
<g id="node32" class="node">
<title>block_139802060108992</title>
<polygon fill="none" stroke="black" points="2135.5,-1774.5 2135.5,-1810.5 2259.5,-1810.5 2259.5,-1774.5 2135.5,-1774.5"/>
<text text-anchor="start" x="2143.5" y="-1788.8" font-family="consolas" font-size="14.00">0x2da: CALLER</text>
</g>
<!-- block_139802060184928 -->
<g id="node47" class="node">
<title>block_139802060184928</title>
<polygon fill="none" stroke="red" points="771,-88.5 771,-126.5 994,-126.5 994,-88.5 771,-88.5"/>
<text text-anchor="start" x="779" y="-111.3" font-family="consolas" font-size="14.00">0x160: %67 = EQ(%66, %66)</text>
<text text-anchor="start" x="779" y="-96.3" font-family="consolas" font-size="14.00">0x164: JUMPI(#169, %67)</text>
</g>
<!-- block_139802060182864&#45;&gt;block_139802060184928 -->
<g id="edge22" class="edge">
<title>block_139802060182864&#45;&gt;block_139802060184928</title>
<path fill="none" stroke="black" d="M882.5,-164.21C882.5,-155.96 882.5,-146.04 882.5,-136.86"/>
<polygon fill="black" stroke="black" points="886,-136.58 882.5,-126.58 879,-136.58 886,-136.58"/>
</g>
<!-- block_139802060109136 -->
<g id="node34" class="node">
<title>block_139802060109136</title>
<polygon fill="none" stroke="black" points="2278,-1774.5 2278,-1810.5 2385,-1810.5 2385,-1774.5 2278,-1774.5"/>
<text text-anchor="start" x="2286" y="-1788.8" font-family="consolas" font-size="14.00">0x2d9: STOP</text>
</g>
<!-- block_139802060396048 -->
<g id="node36" class="node">
<title>block_139802060396048</title>
<polygon fill="none" stroke="black" points="2403.5,-1774.5 2403.5,-1810.5 2535.5,-1810.5 2535.5,-1774.5 2403.5,-1774.5"/>
<text text-anchor="start" x="2411.5" y="-1788.8" font-family="consolas" font-size="14.00">0x2b4: INVALID</text>
</g>
<!-- block_139802060445296 -->
<g id="node38" class="node">
<title>block_139802060445296</title>
<polygon fill="none" stroke="red" points="1148,-691.5 1148,-729.5 1379,-729.5 1379,-691.5 1148,-691.5"/>
<text text-anchor="start" x="1156" y="-714.3" font-family="consolas" font-size="14.00">0x1f5: %25 = ADD(%24, #20)</text>
<text text-anchor="start" x="1156" y="-699.3" font-family="consolas" font-size="14.00">0x203: JUMP(#1e0)</text>
</g>
<!-- block_139802060396144&#45;&gt;block_139802060445296 -->
<g id="edge23" class="edge">
<title>block_139802060396144&#45;&gt;block_139802060445296</title>
<path fill="none" stroke="black" d="M1263.5,-767.21C1263.5,-758.96 1263.5,-749.04 1263.5,-739.86"/>
<polygon fill="black" stroke="black" points="1267,-739.58 1263.5,-729.58 1260,-739.58 1267,-739.58"/>
</g>
<!-- block_139802060445296&#45;&gt;block_139802060481920 -->
<g id="edge24" class="edge">
<title>block_139802060445296&#45;&gt;block_139802060481920</title>
<path fill="none" stroke="black" d="M1263.5,-691.09C1263.5,-673.47 1263.5,-646.65 1263.5,-626.31"/>
<polygon fill="black" stroke="black" points="1267,-626.07 1263.5,-616.07 1260,-626.07 1267,-626.07"/>
</g>
<!-- block_139802060396384 -->
<g id="node39" class="node">
<title>block_139802060396384</title>
<polygon fill="none" stroke="black" points="2554,-1766 2554,-1819 2727,-1819 2727,-1766 2554,-1766"/>
<text text-anchor="start" x="2562" y="-1803.8" font-family="consolas" font-size="14.00">0x2b1: CALLDATASIZE</text>
<text text-anchor="start" x="2562" y="-1788.8" font-family="consolas" font-size="14.00">0x2b2: GT</text>
<text text-anchor="start" x="2562" y="-1773.8" font-family="consolas" font-size="14.00">0x2b3: INVALID</text>
</g>
<!-- block_139802060109664 -->
<g id="node40" class="node">
<title>block_139802060109664</title>
<polygon fill="none" stroke="black" points="2745.5,-1773.5 2745.5,-1811.5 2877.5,-1811.5 2877.5,-1773.5 2745.5,-1773.5"/>
<text text-anchor="start" x="2753.5" y="-1796.3" font-family="consolas" font-size="14.00">0x2d7: ADDMOD</text>
<text text-anchor="start" x="2753.5" y="-1781.3" font-family="consolas" font-size="14.00">0x2d8: INVALID</text>
</g>
<!-- block_139802060396432&#45;&gt;block_139802063307488 -->
<g id="edge26" class="edge">
<title>block_139802060396432&#45;&gt;block_139802063307488</title>
<path fill="none" stroke="darkgreen" d="M1391.91,-978.4C1373.29,-964.99 1349.89,-948.16 1328.19,-932.55"/>
<polygon fill="darkgreen" stroke="darkgreen" points="1330.13,-929.63 1319.97,-926.63 1326.05,-935.31 1330.13,-929.63"/>
<text text-anchor="middle" x="1373" y="-948.8" font-family="consolas" font-size="14.00"> t</text>
</g>
<!-- block_139802060396432&#45;&gt;block_139802060483168 -->
<g id="edge25" class="edge">
<title>block_139802060396432&#45;&gt;block_139802060483168</title>
<path fill="none" stroke="red" d="M1446.81,-978.4C1461.78,-958.56 1482.4,-931.21 1497.33,-911.41"/>
<polygon fill="red" stroke="red" points="1500.32,-913.27 1503.55,-903.17 1494.73,-909.05 1500.32,-913.27"/>
<text text-anchor="middle" x="1480" y="-948.8" font-family="consolas" font-size="14.00"> f</text>
</g>
<!-- block_139802060298224&#45;&gt;block_139802060483936 -->
<g id="edge27" class="edge">
<title>block_139802060298224&#45;&gt;block_139802060483936</title>
<path fill="none" stroke="red" d="M1105.63,-1533.32C1080.27,-1514.13 1048.91,-1490.41 1025.81,-1472.94"/>
<polygon fill="red" stroke="red" points="1027.78,-1470.04 1017.7,-1466.8 1023.56,-1475.63 1027.78,-1470.04"/>
<text text-anchor="middle" x="1090" y="-1503.8" font-family="consolas" font-size="14.00"> f</text>
</g>
<!-- block_139802060298848 -->
<g id="node44" class="node">
<title>block_139802060298848</title>
<polygon fill="none" stroke="black" points="1140,-1413.5 1140,-1481.5 1363,-1481.5 1363,-1413.5 1140,-1413.5"/>
<text text-anchor="start" x="1148" y="-1466.3" font-family="consolas" font-size="14.00">0x42: %7 = CALLDATASIZE()</text>
<text text-anchor="start" x="1148" y="-1451.3" font-family="consolas" font-size="14.00">0x43: %8 = SUB(%7, #4)</text>
<text text-anchor="start" x="1148" y="-1436.3" font-family="consolas" font-size="14.00">0x45: %9 = ADD(#4, %8)</text>
<text text-anchor="start" x="1148" y="-1421.3" font-family="consolas" font-size="14.00">0x4f: JUMP(#181)</text>
</g>
<!-- block_139802060298224&#45;&gt;block_139802060298848 -->
<g id="edge28" class="edge">
<title>block_139802060298224&#45;&gt;block_139802060298848</title>
<path fill="none" stroke="darkgreen" d="M1178.18,-1533.32C1189.92,-1519.74 1203.61,-1503.9 1215.97,-1489.6"/>
<polygon fill="darkgreen" stroke="darkgreen" points="1218.79,-1491.7 1222.68,-1481.84 1213.49,-1487.12 1218.79,-1491.7"/>
<text text-anchor="middle" x="1215" y="-1503.8" font-family="consolas" font-size="14.00"> t</text>
</g>
<!-- block_139802060110384 -->
<g id="node43" class="node">
<title>block_139802060110384</title>
<polygon fill="none" stroke="black" points="2896,-1773.5 2896,-1811.5 3119,-1811.5 3119,-1773.5 2896,-1773.5"/>
<text text-anchor="start" x="2904" y="-1796.3" font-family="consolas" font-size="14.00">0x2d0: PUSH5 0x736f6c6343</text>
<text text-anchor="start" x="2904" y="-1781.3" font-family="consolas" font-size="14.00">0x2d6: STOP</text>
</g>
<!-- block_139802060300144 -->
<g id="node51" class="node">
<title>block_139802060300144</title>
<polygon fill="none" stroke="black" points="1136,-1293.5 1136,-1361.5 1367,-1361.5 1367,-1293.5 1136,-1293.5"/>
<text text-anchor="start" x="1144" y="-1346.3" font-family="consolas" font-size="14.00">0x188: %10 = SUB(%9, #4)</text>
<text text-anchor="start" x="1144" y="-1331.3" font-family="consolas" font-size="14.00">0x189: %11 = SLT(%10, #20)</text>
<text text-anchor="start" x="1144" y="-1316.3" font-family="consolas" font-size="14.00">0x18a: %12 = ISZERO(%11)</text>
<text text-anchor="start" x="1144" y="-1301.3" font-family="consolas" font-size="14.00">0x18e: JUMPI(#197, %12)</text>
</g>
<!-- block_139802060298848&#45;&gt;block_139802060300144 -->
<g id="edge29" class="edge">
<title>block_139802060298848&#45;&gt;block_139802060300144</title>
<path fill="none" stroke="black" d="M1251.5,-1413.32C1251.5,-1400.5 1251.5,-1385.65 1251.5,-1372"/>
<polygon fill="black" stroke="black" points="1255,-1371.84 1251.5,-1361.84 1248,-1371.84 1255,-1371.84"/>
</g>
<!-- block_139802060446496 -->
<g id="node45" class="node">
<title>block_139802060446496</title>
<polygon fill="none" stroke="black" points="3137.5,-1774.5 3137.5,-1810.5 3269.5,-1810.5 3269.5,-1774.5 3137.5,-1774.5"/>
<text text-anchor="start" x="3145.5" y="-1788.8" font-family="consolas" font-size="14.00">0x2a5: INVALID</text>
</g>
<!-- block_139802060111584 -->
<g id="node49" class="node">
<title>block_139802060111584</title>
<polygon fill="none" stroke="black" points="238,-540.5 238,-653.5 675,-653.5 675,-540.5 238,-540.5"/>
<text text-anchor="start" x="246" y="-638.3" font-family="consolas" font-size="14.00">0x104: %49 = MLOAD(#40)</text>
<text text-anchor="start" x="246" y="-623.3" font-family="consolas" font-size="14.00">0x107: %50 = SUB(%46, %49)</text>
<text text-anchor="start" x="246" y="-608.3" font-family="consolas" font-size="14.00">0x10c: %51 = GAS()</text>
<text text-anchor="start" x="246" y="-593.3" font-family="consolas" font-size="14.00">0x10d: %52 = CALL(%51, %38, #0, %49, %50, %49, #20)</text>
<text text-anchor="start" x="246" y="-578.3" font-family="consolas" font-size="14.00">0x10e: %53 = ISZERO(%52)</text>
<text text-anchor="start" x="246" y="-563.3" font-family="consolas" font-size="14.00">0x110: %54 = ISZERO(%53)</text>
<text text-anchor="start" x="246" y="-548.3" font-family="consolas" font-size="14.00">0x114: JUMPI(#11e, %54)</text>
</g>
<!-- block_139802060110912&#45;&gt;block_139802060111584 -->
<g id="edge30" class="edge">
<title>block_139802060110912&#45;&gt;block_139802060111584</title>
<path fill="none" stroke="black" d="M456.5,-691.09C456.5,-683.29 456.5,-673.7 456.5,-663.66"/>
<polygon fill="black" stroke="black" points="460,-663.53 456.5,-653.53 453,-663.53 460,-663.53"/>
</g>
<!-- block_139802060184928&#45;&gt;block_139802060219536 -->
<g id="edge32" class="edge">
<title>block_139802060184928&#45;&gt;block_139802060219536</title>
<path fill="none" stroke="darkgreen" d="M864.89,-88.47C852.33,-75.62 835.3,-58.19 821.51,-44.07"/>
<polygon fill="darkgreen" stroke="darkgreen" points="823.71,-41.32 814.22,-36.62 818.71,-46.21 823.71,-41.32"/>
<text text-anchor="middle" x="854" y="-58.8" font-family="consolas" font-size="14.00"> t</text>
</g>
<!-- block_139802060184928&#45;&gt;block_139802060219680 -->
<g id="edge31" class="edge">
<title>block_139802060184928&#45;&gt;block_139802060219680</title>
<path fill="none" stroke="red" d="M900.32,-88.47C913.02,-75.62 930.25,-58.19 944.21,-44.07"/>
<polygon fill="red" stroke="red" points="947.04,-46.19 951.58,-36.62 942.06,-41.27 947.04,-46.19"/>
<text text-anchor="middle" x="942" y="-58.8" font-family="consolas" font-size="14.00"> f</text>
</g>
<!-- block_139802060111344 -->
<g id="node48" class="node">
<title>block_139802060111344</title>
<polygon fill="none" stroke="black" points="3287.5,-1766 3287.5,-1819 3419.5,-1819 3419.5,-1766 3287.5,-1766"/>
<text text-anchor="start" x="3295.5" y="-1803.8" font-family="consolas" font-size="14.00">0x2cd: DUP1</text>
<text text-anchor="start" x="3295.5" y="-1788.8" font-family="consolas" font-size="14.00">0x2ce: DUP6</text>
<text text-anchor="start" x="3295.5" y="-1773.8" font-family="consolas" font-size="14.00">0x2cf: INVALID</text>
</g>
<!-- block_139802060111584&#45;&gt;block_139802060220688 -->
<g id="edge33" class="edge">
<title>block_139802060111584&#45;&gt;block_139802060220688</title>
<path fill="none" stroke="red" d="M356.08,-540.41C310.61,-515.24 258.03,-486.13 217.16,-463.51"/>
<polygon fill="red" stroke="red" points="218.8,-460.42 208.36,-458.64 215.41,-466.54 218.8,-460.42"/>
<text text-anchor="middle" x="330" y="-510.8" font-family="consolas" font-size="14.00"> f</text>
</g>
<!-- block_139802060111632 -->
<g id="node50" class="node">
<title>block_139802060111632</title>
<polygon fill="none" stroke="black" points="315,-360.5 315,-488.5 1058,-488.5 1058,-360.5 315,-360.5"/>
<text text-anchor="start" x="323" y="-473.3" font-family="consolas" font-size="14.00">0x125: %55 = MLOAD(#40)</text>
<text text-anchor="start" x="323" y="-458.3" font-family="consolas" font-size="14.00">0x126: %56 = RETURNDATASIZE()</text>
<text text-anchor="start" x="323" y="-443.3" font-family="consolas" font-size="14.00">0x12d: %58 = ADD(%56, #1f)</text>
<text text-anchor="start" x="323" y="-428.3" font-family="consolas" font-size="14.00">0x12e: %59 = AND(%58, #ffffffffffffffffffffffffffffffffffffffffffffffffffffffffffffffe0)</text>
<text text-anchor="start" x="323" y="-413.3" font-family="consolas" font-size="14.00">0x130: %60 = ADD(%55, %59)</text>
<text text-anchor="start" x="323" y="-398.3" font-family="consolas" font-size="14.00">0x134: MSTORE(#40, %60)</text>
<text text-anchor="start" x="323" y="-383.3" font-family="consolas" font-size="14.00">0x137: %61 = ADD(%55, %56)</text>
<text text-anchor="start" x="323" y="-368.3" font-family="consolas" font-size="14.00">0x141: JUMP(#278)</text>
</g>
<!-- block_139802060111584&#45;&gt;block_139802060111632 -->
<g id="edge34" class="edge">
<title>block_139802060111584&#45;&gt;block_139802060111632</title>
<path fill="none" stroke="darkgreen" d="M531.49,-540.41C551.17,-525.82 572.62,-509.92 593.13,-494.71"/>
<polygon fill="darkgreen" stroke="darkgreen" points="595.29,-497.47 601.24,-488.7 591.12,-491.85 595.29,-497.47"/>
<text text-anchor="middle" x="580" y="-510.8" font-family="consolas" font-size="14.00"> t</text>
</g>
<!-- block_139802060111632&#45;&gt;block_139802060155824 -->
<g id="edge35" class="edge">
<title>block_139802060111632&#45;&gt;block_139802060155824</title>
<path fill="none" stroke="black" d="M686.5,-360.42C686.5,-351.06 686.5,-341.59 686.5,-332.75"/>
<polygon fill="black" stroke="black" points="690,-332.71 686.5,-322.71 683,-332.71 690,-332.71"/>
</g>
<!-- block_139802060300144&#45;&gt;block_139802059989296 -->
<g id="edge36" class="edge">
<title>block_139802060300144&#45;&gt;block_139802059989296</title>
<path fill="none" stroke="red" d="M1189.65,-1293.47C1151.83,-1273.28 1104.51,-1248.02 1071.34,-1230.31"/>
<polygon fill="red" stroke="red" points="1072.85,-1227.14 1062.38,-1225.52 1069.55,-1233.32 1072.85,-1227.14"/>
<text text-anchor="middle" x="1162" y="-1263.8" font-family="consolas" font-size="14.00"> f</text>
</g>
<!-- block_139802060300144&#45;&gt;block_139802060351760 -->
<g id="edge37" class="edge">
<title>block_139802060300144&#45;&gt;block_139802060351760</title>
<path fill="none" stroke="darkgreen" d="M1257.12,-1293.32C1260.15,-1275.48 1263.84,-1253.72 1266.72,-1236.7"/>
<polygon fill="darkgreen" stroke="darkgreen" points="1270.18,-1237.25 1268.4,-1226.8 1263.28,-1236.08 1270.18,-1237.25"/>
<text text-anchor="middle" x="1271" y="-1263.8" font-family="consolas" font-size="14.00"> t</text>
</g>
<!-- block_139802060447696 -->
<g id="node52" class="node">
<title>block_139802060447696</title>
<polygon fill="none" stroke="black" points="3437.5,-1774.5 3437.5,-1810.5 3577.5,-1810.5 3577.5,-1774.5 3437.5,-1774.5"/>
<text text-anchor="start" x="3445.5" y="-1788.8" font-family="consolas" font-size="14.00">0x28d: JUMPDEST</text>
</g>
</g>
</svg>
