<?xml version="1.0" encoding="UTF-8" standalone="no"?>
<!DOCTYPE svg PUBLIC "-//W3C//DTD SVG 1.1//EN"
 "http://www.w3.org/Graphics/SVG/1.1/DTD/svg11.dtd">
<!-- Generated by graphviz version 2.43.0 (0)
 -->
<!-- Title: G Pages: 1 -->
<svg width="2159pt" height="1175pt"
 viewBox="0.00 0.00 2159.00 1175.00" xmlns="http://www.w3.org/2000/svg" xmlns:xlink="http://www.w3.org/1999/xlink">
<g id="graph0" class="graph" transform="scale(1 1) rotate(0) translate(4 1171)">
<title>G</title>
<polygon fill="white" stroke="transparent" points="-4,4 -4,-1171 2155,-1171 2155,4 -4,4"/>
<!-- block_140538589311856 -->
<g id="node1" class="node">
<title>block_140538589311856</title>
<polygon fill="none" stroke="red" points="1033,-484.5 1033,-520.5 1215,-520.5 1215,-484.5 1033,-484.5"/>
<text text-anchor="start" x="1041" y="-498.8" font-family="consolas" font-size="14.00">0x45: REVERT(#0, #0)</text>
</g>
<!-- block_140538589483936 -->
<g id="node2" class="node">
<title>block_140538589483936</title>
<polygon fill="none" stroke="black" points="738.5,-483.5 738.5,-521.5 969.5,-521.5 969.5,-483.5 738.5,-483.5"/>
<text text-anchor="start" x="746.5" y="-506.3" font-family="consolas" font-size="14.00">0x30b: %17 = ADD(%16, #40)</text>
<text text-anchor="start" x="746.5" y="-491.3" font-family="consolas" font-size="14.00">0x319: JUMP(#1f3)</text>
</g>
<!-- block_140538589523392 -->
<g id="node29" class="node">
<title>block_140538589523392</title>
<polygon fill="none" stroke="red" points="751,-385 751,-423 957,-423 957,-385 751,-385"/>
<text text-anchor="start" x="759" y="-407.8" font-family="consolas" font-size="14.00">0x1fe: MSTORE(%16, %15)</text>
<text text-anchor="start" x="759" y="-392.8" font-family="consolas" font-size="14.00">0x201: JUMP(#31a)</text>
</g>
<!-- block_140538589483936&#45;&gt;block_140538589523392 -->
<g id="edge1" class="edge">
<title>block_140538589483936&#45;&gt;block_140538589523392</title>
<path fill="none" stroke="black" d="M854,-483.35C854,-469.2 854,-449.29 854,-433.09"/>
<polygon fill="black" stroke="black" points="857.5,-433.07 854,-423.07 850.5,-433.07 857.5,-433.07"/>
</g>
<!-- block_140538589275088 -->
<g id="node3" class="node">
<title>block_140538589275088</title>
<polygon fill="none" stroke="black" points="1216.5,-286.5 1216.5,-324.5 1447.5,-324.5 1447.5,-286.5 1216.5,-286.5"/>
<text text-anchor="start" x="1224.5" y="-309.3" font-family="consolas" font-size="14.00">0x208: %47 = ADD(%46, #20)</text>
<text text-anchor="start" x="1224.5" y="-294.3" font-family="consolas" font-size="14.00">0x216: JUMP(#1f3)</text>
</g>
<!-- block_140538589277680 -->
<g id="node30" class="node">
<title>block_140538589277680</title>
<polygon fill="none" stroke="red" points="1231,-188 1231,-226 1437,-226 1437,-188 1231,-188"/>
<text text-anchor="start" x="1239" y="-210.8" font-family="consolas" font-size="14.00">0x1fe: MSTORE(%46, %45)</text>
<text text-anchor="start" x="1239" y="-195.8" font-family="consolas" font-size="14.00">0x201: JUMP(#217)</text>
</g>
<!-- block_140538589275088&#45;&gt;block_140538589277680 -->
<g id="edge2" class="edge">
<title>block_140538589275088&#45;&gt;block_140538589277680</title>
<path fill="none" stroke="black" d="M1332.38,-286.35C1332.67,-272.2 1333.08,-252.29 1333.42,-236.09"/>
<polygon fill="black" stroke="black" points="1336.92,-236.14 1333.63,-226.07 1329.92,-235.99 1336.92,-236.14"/>
</g>
<!-- block_140538589242464 -->
<g id="node4" class="node">
<title>block_140538589242464</title>
<polygon fill="none" stroke="black" points="1466,-286.5 1466,-324.5 1672,-324.5 1672,-286.5 1466,-286.5"/>
<text text-anchor="start" x="1474" y="-309.3" font-family="consolas" font-size="14.00">0x1ca: MSTORE(%38, %34)</text>
<text text-anchor="start" x="1474" y="-294.3" font-family="consolas" font-size="14.00">0x1cd: JUMP(#1e3)</text>
</g>
<!-- block_140538589243280 -->
<g id="node15" class="node">
<title>block_140538589243280</title>
<polygon fill="none" stroke="black" points="1457.5,-180.5 1457.5,-233.5 1680.5,-233.5 1680.5,-180.5 1457.5,-180.5"/>
<text text-anchor="start" x="1465.5" y="-218.3" font-family="consolas" font-size="14.00">0x68: %42 = MLOAD(#40)</text>
<text text-anchor="start" x="1465.5" y="-203.3" font-family="consolas" font-size="14.00">0x6b: %43 = SUB(%39, %42)</text>
<text text-anchor="start" x="1465.5" y="-188.3" font-family="consolas" font-size="14.00">0x6d: RETURN(%42, %43)</text>
</g>
<!-- block_140538589242464&#45;&gt;block_140538589243280 -->
<g id="edge3" class="edge">
<title>block_140538589242464&#45;&gt;block_140538589243280</title>
<path fill="none" stroke="black" d="M1569,-286.35C1569,-274.4 1569,-258.35 1569,-243.89"/>
<polygon fill="black" stroke="black" points="1572.5,-243.72 1569,-233.72 1565.5,-243.72 1572.5,-243.72"/>
</g>
<!-- block_140538589484176 -->
<g id="node5" class="node">
<title>block_140538589484176</title>
<polygon fill="none" stroke="black" points="718,-708.5 718,-776.5 990,-776.5 990,-708.5 718,-708.5"/>
<text text-anchor="start" x="726" y="-761.3" font-family="consolas" font-size="14.00">0x92: %7 = SLOAD(#1) // ADDRESS</text>
<text text-anchor="start" x="726" y="-746.3" font-family="consolas" font-size="14.00">0xc6: %12 = CALLER() // ADDRESS</text>
<text text-anchor="start" x="726" y="-731.3" font-family="consolas" font-size="14.00">0xdd: %14 = EQ(%12, %7)</text>
<text text-anchor="start" x="726" y="-716.3" font-family="consolas" font-size="14.00">0xe1: JUMPI(#11c, %14)</text>
</g>
<!-- block_140538589616304 -->
<g id="node16" class="node">
<title>block_140538589616304</title>
<polygon fill="none" stroke="black" points="23,-588.5 23,-656.5 733,-656.5 733,-588.5 23,-588.5"/>
<text text-anchor="start" x="31" y="-641.3" font-family="consolas" font-size="14.00">0xe4: %22 = MLOAD(#40)</text>
<text text-anchor="start" x="31" y="-626.3" font-family="consolas" font-size="14.00">0x107: MSTORE(%22, #8c379a000000000000000000000000000000000000000000000000000000000)</text>
<text text-anchor="start" x="31" y="-611.3" font-family="consolas" font-size="14.00">0x10a: %23 = ADD(#4, %22)</text>
<text text-anchor="start" x="31" y="-596.3" font-family="consolas" font-size="14.00">0x112: JUMP(#2a0)</text>
</g>
<!-- block_140538589484176&#45;&gt;block_140538589616304 -->
<g id="edge4" class="edge">
<title>block_140538589484176&#45;&gt;block_140538589616304</title>
<path fill="none" stroke="red" d="M720.77,-708.47C658.64,-693.07 584.6,-674.72 521.26,-659.01"/>
<polygon fill="red" stroke="red" points="521.74,-655.53 511.19,-656.52 520.06,-662.32 521.74,-655.53"/>
<text text-anchor="middle" x="653.5" y="-678.8" font-family="consolas" font-size="14.00"> f</text>
</g>
<!-- block_140538589485376 -->
<g id="node17" class="node">
<title>block_140538589485376</title>
<polygon fill="none" stroke="black" points="751,-588.5 751,-656.5 957,-656.5 957,-588.5 751,-588.5"/>
<text text-anchor="start" x="759" y="-641.3" font-family="consolas" font-size="14.00">0x123: SSTORE(#0, #40)</text>
<text text-anchor="start" x="759" y="-626.3" font-family="consolas" font-size="14.00">0x148: %15 = SLOAD(#0)</text>
<text text-anchor="start" x="759" y="-611.3" font-family="consolas" font-size="14.00">0x14c: %16 = MLOAD(#40)</text>
<text text-anchor="start" x="759" y="-596.3" font-family="consolas" font-size="14.00">0x156: JUMP(#305)</text>
</g>
<!-- block_140538589484176&#45;&gt;block_140538589485376 -->
<g id="edge5" class="edge">
<title>block_140538589484176&#45;&gt;block_140538589485376</title>
<path fill="none" stroke="darkgreen" d="M854,-708.32C854,-695.5 854,-680.65 854,-667"/>
<polygon fill="darkgreen" stroke="darkgreen" points="857.5,-666.84 854,-656.84 850.5,-666.84 857.5,-666.84"/>
<text text-anchor="middle" x="862.5" y="-678.8" font-family="consolas" font-size="14.00"> t</text>
</g>
<!-- block_140538589197600 -->
<g id="node6" class="node">
<title>block_140538589197600</title>
<polygon fill="none" stroke="black" points="1451.5,-385 1451.5,-423 1682.5,-423 1682.5,-385 1451.5,-385"/>
<text text-anchor="start" x="1459.5" y="-407.8" font-family="consolas" font-size="14.00">0x1d4: %39 = ADD(%38, #20)</text>
<text text-anchor="start" x="1459.5" y="-392.8" font-family="consolas" font-size="14.00">0x1e2: JUMP(#1bf)</text>
</g>
<!-- block_140538589197600&#45;&gt;block_140538589242464 -->
<g id="edge6" class="edge">
<title>block_140538589197600&#45;&gt;block_140538589242464</title>
<path fill="none" stroke="black" d="M1567.38,-384.85C1567.67,-370.7 1568.08,-350.79 1568.42,-334.59"/>
<polygon fill="black" stroke="black" points="1571.92,-334.64 1568.63,-324.57 1564.92,-334.49 1571.92,-334.64"/>
</g>
<!-- block_140538589164880 -->
<g id="node7" class="node">
<title>block_140538589164880</title>
<polygon fill="none" stroke="black" points="781,-1092 781,-1128 913,-1128 913,-1092 781,-1092"/>
<text text-anchor="start" x="789" y="-1106.3" font-family="consolas" font-size="14.00">0x32e: INVALID</text>
</g>
<!-- block_140538589615440 -->
<g id="node8" class="node">
<title>block_140538589615440</title>
<polygon fill="none" stroke="black" points="482.5,-74.5 482.5,-142.5 1225.5,-142.5 1225.5,-74.5 482.5,-74.5"/>
<text text-anchor="start" x="490.5" y="-127.3" font-family="consolas" font-size="14.00">0x15a: %20 = MLOAD(#40)</text>
<text text-anchor="start" x="490.5" y="-112.3" font-family="consolas" font-size="14.00">0x15d: %21 = SUB(%17, %20)</text>
<text text-anchor="start" x="490.5" y="-97.3" font-family="consolas" font-size="14.00">0x15f: LOG1(%20, %21, #3a52c7c26ec528097d71f2a50fea52f117ab4d49844d3e342bfc8ffca6fbd98c)</text>
<text text-anchor="start" x="490.5" y="-82.3" font-family="consolas" font-size="14.00">0x160: JUMP(#4e)</text>
</g>
<!-- block_140538589615872 -->
<g id="node12" class="node">
<title>block_140538589615872</title>
<polygon fill="none" stroke="black" points="796,-0.5 796,-36.5 912,-36.5 912,-0.5 796,-0.5"/>
<text text-anchor="start" x="804" y="-14.8" font-family="consolas" font-size="14.00">0x4f: STOP()</text>
</g>
<!-- block_140538589615440&#45;&gt;block_140538589615872 -->
<g id="edge7" class="edge">
<title>block_140538589615440&#45;&gt;block_140538589615872</title>
<path fill="none" stroke="black" d="M854,-74.48C854,-65.33 854,-55.5 854,-46.72"/>
<polygon fill="black" stroke="black" points="857.5,-46.64 854,-36.64 850.5,-46.64 857.5,-46.64"/>
</g>
<!-- block_140538589164976 -->
<g id="node9" class="node">
<title>block_140538589164976</title>
<polygon fill="none" stroke="black" points="233.5,-82 233.5,-135 464.5,-135 464.5,-82 233.5,-82"/>
<text text-anchor="start" x="241.5" y="-119.8" font-family="consolas" font-size="14.00">0x116: %31 = MLOAD(#40)</text>
<text text-anchor="start" x="241.5" y="-104.8" font-family="consolas" font-size="14.00">0x119: %32 = SUB(%30, %31)</text>
<text text-anchor="start" x="241.5" y="-89.8" font-family="consolas" font-size="14.00">0x11b: REVERT(%31, %32)</text>
</g>
<!-- block_140538589652448 -->
<g id="node10" class="node">
<title>block_140538589652448</title>
<polygon fill="none" stroke="black" points="257.5,-377.5 257.5,-430.5 488.5,-430.5 488.5,-377.5 257.5,-377.5"/>
<text text-anchor="start" x="265.5" y="-415.3" font-family="consolas" font-size="14.00">0x222: MSTORE(%24, #33)</text>
<text text-anchor="start" x="265.5" y="-400.3" font-family="consolas" font-size="14.00">0x226: %27 = ADD(%24, #20)</text>
<text text-anchor="start" x="265.5" y="-385.3" font-family="consolas" font-size="14.00">0x22d: JUMP(#28a)</text>
</g>
<!-- block_140538589654032 -->
<g id="node23" class="node">
<title>block_140538589654032</title>
<polygon fill="none" stroke="black" points="0,-271.5 0,-339.5 718,-339.5 718,-271.5 0,-271.5"/>
<text text-anchor="start" x="8" y="-324.3" font-family="consolas" font-size="14.00">0x254: MSTORE(%27, #546869732066756e6374696f6e206973207265737472696374656420746f2074)</text>
<text text-anchor="start" x="8" y="-309.3" font-family="consolas" font-size="14.00">0x279: %29 = ADD(%27, #20)</text>
<text text-anchor="start" x="8" y="-294.3" font-family="consolas" font-size="14.00">0x27a: MSTORE(%29, #686520636f6e74726163742773206f776e657200000000000000000000000000)</text>
<text text-anchor="start" x="8" y="-279.3" font-family="consolas" font-size="14.00">0x27c: JUMP(#295)</text>
</g>
<!-- block_140538589652448&#45;&gt;block_140538589654032 -->
<g id="edge8" class="edge">
<title>block_140538589652448&#45;&gt;block_140538589654032</title>
<path fill="none" stroke="black" d="M369.29,-377.39C368.05,-368.86 366.63,-359.11 365.26,-349.63"/>
<polygon fill="black" stroke="black" points="368.69,-348.91 363.79,-339.52 361.76,-349.91 368.69,-348.91"/>
</g>
<!-- block_140538589312528 -->
<g id="node11" class="node">
<title>block_140538589312528</title>
<polygon fill="none" stroke="black" points="561.5,-957 561.5,-993 734.5,-993 734.5,-957 561.5,-957"/>
<text text-anchor="start" x="569.5" y="-971.3" font-family="consolas" font-size="14.00">0xf: REVERT(#0, #0)</text>
</g>
<!-- block_140538589439840 -->
<g id="node13" class="node">
<title>block_140538589439840</title>
<polygon fill="none" stroke="black" points="573,-1076 573,-1144 763,-1144 763,-1076 573,-1076"/>
<text text-anchor="start" x="581" y="-1128.8" font-family="consolas" font-size="14.00">0x4: MSTORE(#40, #80)</text>
<text text-anchor="start" x="581" y="-1113.8" font-family="consolas" font-size="14.00">0x5: %0 = CALLVALUE()</text>
<text text-anchor="start" x="581" y="-1098.8" font-family="consolas" font-size="14.00">0x7: %1 = ISZERO(%0)</text>
<text text-anchor="start" x="581" y="-1083.8" font-family="consolas" font-size="14.00">0xb: JUMPI(#10, %1)</text>
</g>
<!-- block_140538589439840&#45;&gt;block_140538589312528 -->
<g id="edge9" class="edge">
<title>block_140538589439840&#45;&gt;block_140538589312528</title>
<path fill="none" stroke="red" d="M663,-1075.78C659.65,-1053.5 655.3,-1024.51 652.14,-1003.53"/>
<polygon fill="red" stroke="red" points="655.56,-1002.73 650.61,-993.36 648.64,-1003.77 655.56,-1002.73"/>
<text text-anchor="middle" x="665.5" y="-1023.8" font-family="consolas" font-size="14.00"> f</text>
</g>
<!-- block_140538589440368 -->
<g id="node19" class="node">
<title>block_140538589440368</title>
<polygon fill="none" stroke="black" points="752.5,-948.5 752.5,-1001.5 975.5,-1001.5 975.5,-948.5 752.5,-948.5"/>
<text text-anchor="start" x="760.5" y="-986.3" font-family="consolas" font-size="14.00">0x14: %2 = CALLDATASIZE()</text>
<text text-anchor="start" x="760.5" y="-971.3" font-family="consolas" font-size="14.00">0x15: %3 = LT(%2, #4)</text>
<text text-anchor="start" x="760.5" y="-956.3" font-family="consolas" font-size="14.00">0x19: JUMPI(#41, %3)</text>
</g>
<!-- block_140538589439840&#45;&gt;block_140538589440368 -->
<g id="edge10" class="edge">
<title>block_140538589439840&#45;&gt;block_140538589440368</title>
<path fill="none" stroke="darkgreen" d="M716.7,-1075.95C747.69,-1054.93 787.56,-1027.87 818.01,-1007.21"/>
<polygon fill="darkgreen" stroke="darkgreen" points="820.02,-1010.07 826.33,-1001.56 816.09,-1004.28 820.02,-1010.07"/>
<text text-anchor="middle" x="803.5" y="-1023.8" font-family="consolas" font-size="14.00"> t</text>
</g>
<!-- block_140538589165408 -->
<g id="node14" class="node">
<title>block_140538589165408</title>
<polygon fill="none" stroke="black" points="1029,-723.5 1029,-761.5 1285,-761.5 1285,-723.5 1029,-723.5"/>
<text text-anchor="start" x="1037" y="-746.3" font-family="consolas" font-size="14.00">0x31: %33 = EQ(#8da5cb5b, %5)</text>
<text text-anchor="start" x="1037" y="-731.3" font-family="consolas" font-size="14.00">0x35: JUMPI(#50, %33)</text>
</g>
<!-- block_140538589243712 -->
<g id="node18" class="node">
<title>block_140538589243712</title>
<polygon fill="none" stroke="black" points="1029,-603.5 1029,-641.5 1285,-641.5 1285,-603.5 1029,-603.5"/>
<text text-anchor="start" x="1037" y="-626.3" font-family="consolas" font-size="14.00">0x3c: %44 = EQ(#af0699c5, %5)</text>
<text text-anchor="start" x="1037" y="-611.3" font-family="consolas" font-size="14.00">0x40: JUMPI(#6e, %44)</text>
</g>
<!-- block_140538589165408&#45;&gt;block_140538589243712 -->
<g id="edge11" class="edge">
<title>block_140538589165408&#45;&gt;block_140538589243712</title>
<path fill="none" stroke="red" d="M1157,-723.32C1157,-704.21 1157,-673.89 1157,-651.68"/>
<polygon fill="red" stroke="red" points="1160.5,-651.51 1157,-641.51 1153.5,-651.51 1160.5,-651.51"/>
<text text-anchor="middle" x="1165.5" y="-678.8" font-family="consolas" font-size="14.00"> f</text>
</g>
<!-- block_140538589166656 -->
<g id="node24" class="node">
<title>block_140538589166656</title>
<polygon fill="none" stroke="black" points="1369.5,-603.5 1369.5,-641.5 1658.5,-641.5 1658.5,-603.5 1369.5,-603.5"/>
<text text-anchor="start" x="1377.5" y="-626.3" font-family="consolas" font-size="14.00">0x167: %34 = SLOAD(#1) // ADDRESS</text>
<text text-anchor="start" x="1377.5" y="-611.3" font-family="consolas" font-size="14.00">0x186: JUMP(#58)</text>
</g>
<!-- block_140538589165408&#45;&gt;block_140538589166656 -->
<g id="edge12" class="edge">
<title>block_140538589165408&#45;&gt;block_140538589166656</title>
<path fill="none" stroke="darkgreen" d="M1211.61,-723.45C1275.65,-702.28 1381.68,-667.24 1449.65,-644.77"/>
<polygon fill="darkgreen" stroke="darkgreen" points="1451,-648.01 1459.4,-641.55 1448.8,-641.36 1451,-648.01"/>
<text text-anchor="middle" x="1364.5" y="-678.8" font-family="consolas" font-size="14.00"> t</text>
</g>
<!-- block_140538589617024 -->
<g id="node21" class="node">
<title>block_140538589617024</title>
<polygon fill="none" stroke="black" points="260.5,-468.5 260.5,-536.5 491.5,-536.5 491.5,-468.5 260.5,-468.5"/>
<text text-anchor="start" x="268.5" y="-521.3" font-family="consolas" font-size="14.00">0x2a6: %24 = ADD(%23, #20)</text>
<text text-anchor="start" x="268.5" y="-506.3" font-family="consolas" font-size="14.00">0x2ab: %25 = SUB(%24, %23)</text>
<text text-anchor="start" x="268.5" y="-491.3" font-family="consolas" font-size="14.00">0x2b0: MSTORE(%23, %25)</text>
<text text-anchor="start" x="268.5" y="-476.3" font-family="consolas" font-size="14.00">0x2b8: JUMP(#27d)</text>
</g>
<!-- block_140538589616304&#45;&gt;block_140538589617024 -->
<g id="edge13" class="edge">
<title>block_140538589616304&#45;&gt;block_140538589617024</title>
<path fill="none" stroke="black" d="M377.44,-588.32C377.22,-575.5 376.97,-560.65 376.74,-547"/>
<polygon fill="black" stroke="black" points="380.23,-546.78 376.57,-536.84 373.24,-546.9 380.23,-546.78"/>
</g>
<!-- block_140538589485376&#45;&gt;block_140538589483936 -->
<g id="edge14" class="edge">
<title>block_140538589485376&#45;&gt;block_140538589483936</title>
<path fill="none" stroke="black" d="M854,-588.32C854,-570.65 854,-549.13 854,-532.19"/>
<polygon fill="black" stroke="black" points="857.5,-531.8 854,-521.8 850.5,-531.8 857.5,-531.8"/>
</g>
<!-- block_140538589243712&#45;&gt;block_140538589311856 -->
<g id="edge15" class="edge">
<title>block_140538589243712&#45;&gt;block_140538589311856</title>
<path fill="none" stroke="red" d="M1151.92,-603.32C1146.48,-583.9 1137.82,-552.9 1131.58,-530.6"/>
<polygon fill="red" stroke="red" points="1134.89,-529.43 1128.82,-520.74 1128.14,-531.31 1134.89,-529.43"/>
<text text-anchor="middle" x="1150.5" y="-558.8" font-family="consolas" font-size="14.00"> f</text>
</g>
<!-- block_140538589245008 -->
<g id="node31" class="node">
<title>block_140538589245008</title>
<polygon fill="none" stroke="black" points="1233,-483.5 1233,-521.5 1431,-521.5 1431,-483.5 1233,-483.5"/>
<text text-anchor="start" x="1241" y="-506.3" font-family="consolas" font-size="14.00">0x18a: %45 = SLOAD(#0)</text>
<text text-anchor="start" x="1241" y="-491.3" font-family="consolas" font-size="14.00">0x18c: JUMP(#76)</text>
</g>
<!-- block_140538589243712&#45;&gt;block_140538589245008 -->
<g id="edge16" class="edge">
<title>block_140538589243712&#45;&gt;block_140538589245008</title>
<path fill="none" stroke="darkgreen" d="M1183.96,-603.32C1214.24,-582.91 1263.48,-549.7 1296.78,-527.25"/>
<polygon fill="darkgreen" stroke="darkgreen" points="1298.96,-530 1305.3,-521.51 1295.05,-524.19 1298.96,-530"/>
<text text-anchor="middle" x="1262.5" y="-558.8" font-family="consolas" font-size="14.00"> t</text>
</g>
<!-- block_140538589441184 -->
<g id="node26" class="node">
<title>block_140538589441184</title>
<polygon fill="none" stroke="red" points="705,-844.5 705,-880.5 887,-880.5 887,-844.5 705,-844.5"/>
<text text-anchor="start" x="713" y="-858.8" font-family="consolas" font-size="14.00">0x45: REVERT(#0, #0)</text>
</g>
<!-- block_140538589440368&#45;&gt;block_140538589441184 -->
<g id="edge18" class="edge">
<title>block_140538589440368&#45;&gt;block_140538589441184</title>
<path fill="none" stroke="darkgreen" d="M848.23,-948.37C837.34,-930.67 822.9,-907.22 811.97,-889.45"/>
<polygon fill="darkgreen" stroke="darkgreen" points="814.83,-887.42 806.61,-880.74 808.87,-891.09 814.83,-887.42"/>
<text text-anchor="middle" x="844.5" y="-918.8" font-family="consolas" font-size="14.00"> t</text>
</g>
<!-- block_140538589441712 -->
<g id="node32" class="node">
<title>block_140538589441712</title>
<polygon fill="none" stroke="black" points="905,-828.5 905,-896.5 1153,-896.5 1153,-828.5 905,-828.5"/>
<text text-anchor="start" x="913" y="-881.3" font-family="consolas" font-size="14.00">0x1c: %4 = CALLDATALOAD(#0)</text>
<text text-anchor="start" x="913" y="-866.3" font-family="consolas" font-size="14.00">0x1f: %5 = SHR(#e0, %4)</text>
<text text-anchor="start" x="913" y="-851.3" font-family="consolas" font-size="14.00">0x26: %6 = EQ(#2966c024, %5)</text>
<text text-anchor="start" x="913" y="-836.3" font-family="consolas" font-size="14.00">0x2a: JUMPI(#46, %6)</text>
</g>
<!-- block_140538589440368&#45;&gt;block_140538589441712 -->
<g id="edge17" class="edge">
<title>block_140538589440368&#45;&gt;block_140538589441712</title>
<path fill="none" stroke="red" d="M902.27,-948.37C922.7,-934.69 948.26,-917.57 971.07,-902.29"/>
<polygon fill="red" stroke="red" points="973.3,-905.01 979.66,-896.54 969.41,-899.2 973.3,-905.01"/>
<text text-anchor="middle" x="959.5" y="-918.8" font-family="consolas" font-size="14.00"> f</text>
</g>
<!-- block_140538589198848 -->
<g id="node20" class="node">
<title>block_140538589198848</title>
<polygon fill="none" stroke="black" points="931.5,-1092 931.5,-1128 1426.5,-1128 1426.5,-1092 931.5,-1092"/>
<text text-anchor="start" x="939.5" y="-1106.3" font-family="consolas" font-size="14.00">0x34e: PUSH21 0x12d04d2c0dc7e8830b4264736f6c63430008090033</text>
</g>
<!-- block_140538589617024&#45;&gt;block_140538589652448 -->
<g id="edge19" class="edge">
<title>block_140538589617024&#45;&gt;block_140538589652448</title>
<path fill="none" stroke="black" d="M374.97,-468.29C374.69,-459.43 374.39,-449.83 374.11,-440.84"/>
<polygon fill="black" stroke="black" points="377.61,-440.53 373.8,-430.65 370.61,-440.75 377.61,-440.53"/>
</g>
<!-- block_140538589277056 -->
<g id="node22" class="node">
<title>block_140538589277056</title>
<polygon fill="none" stroke="black" points="1243.5,-82 1243.5,-135 1466.5,-135 1466.5,-82 1243.5,-82"/>
<text text-anchor="start" x="1251.5" y="-119.8" font-family="consolas" font-size="14.00">0x86: %49 = MLOAD(#40)</text>
<text text-anchor="start" x="1251.5" y="-104.8" font-family="consolas" font-size="14.00">0x89: %50 = SUB(%47, %49)</text>
<text text-anchor="start" x="1251.5" y="-89.8" font-family="consolas" font-size="14.00">0x8b: RETURN(%49, %50)</text>
</g>
<!-- block_140538589654848 -->
<g id="node33" class="node">
<title>block_140538589654848</title>
<polygon fill="none" stroke="black" points="239.5,-188 239.5,-226 470.5,-226 470.5,-188 239.5,-188"/>
<text text-anchor="start" x="247.5" y="-210.8" font-family="consolas" font-size="14.00">0x299: %30 = ADD(%27, #40)</text>
<text text-anchor="start" x="247.5" y="-195.8" font-family="consolas" font-size="14.00">0x29f: JUMP(#2b9)</text>
</g>
<!-- block_140538589654032&#45;&gt;block_140538589654848 -->
<g id="edge20" class="edge">
<title>block_140538589654032&#45;&gt;block_140538589654848</title>
<path fill="none" stroke="black" d="M357.62,-271.29C357.15,-259.92 356.63,-247.32 356.18,-236.37"/>
<polygon fill="black" stroke="black" points="359.66,-235.92 355.75,-226.08 352.67,-236.21 359.66,-235.92"/>
</g>
<!-- block_140538589167568 -->
<g id="node37" class="node">
<title>block_140538589167568</title>
<polygon fill="none" stroke="black" points="1457,-483.5 1457,-521.5 1655,-521.5 1655,-483.5 1457,-483.5"/>
<text text-anchor="start" x="1465" y="-506.3" font-family="consolas" font-size="14.00">0x5b: %38 = MLOAD(#40)</text>
<text text-anchor="start" x="1465" y="-491.3" font-family="consolas" font-size="14.00">0x64: JUMP(#1ce)</text>
</g>
<!-- block_140538589166656&#45;&gt;block_140538589167568 -->
<g id="edge21" class="edge">
<title>block_140538589166656&#45;&gt;block_140538589167568</title>
<path fill="none" stroke="black" d="M1520.47,-603.32C1527.33,-584.04 1538.26,-553.34 1546.19,-531.07"/>
<polygon fill="black" stroke="black" points="1549.54,-532.1 1549.59,-521.51 1542.94,-529.75 1549.54,-532.1"/>
</g>
<!-- block_140538589244480 -->
<g id="node25" class="node">
<title>block_140538589244480</title>
<polygon fill="none" stroke="black" points="1233,-385 1233,-423 1431,-423 1431,-385 1233,-385"/>
<text text-anchor="start" x="1241" y="-407.8" font-family="consolas" font-size="14.00">0x79: %46 = MLOAD(#40)</text>
<text text-anchor="start" x="1241" y="-392.8" font-family="consolas" font-size="14.00">0x82: JUMP(#202)</text>
</g>
<!-- block_140538589244480&#45;&gt;block_140538589275088 -->
<g id="edge22" class="edge">
<title>block_140538589244480&#45;&gt;block_140538589275088</title>
<path fill="none" stroke="black" d="M1332,-384.85C1332,-370.7 1332,-350.79 1332,-334.59"/>
<polygon fill="black" stroke="black" points="1335.5,-334.57 1332,-324.57 1328.5,-334.57 1335.5,-334.57"/>
</g>
<!-- block_140538589199664 -->
<g id="node27" class="node">
<title>block_140538589199664</title>
<polygon fill="none" stroke="black" points="1445,-1053.5 1445,-1166.5 1759,-1166.5 1759,-1053.5 1445,-1053.5"/>
<text text-anchor="start" x="1453" y="-1151.3" font-family="consolas" font-size="14.00">0x33b: ADDRESS</text>
<text text-anchor="start" x="1453" y="-1136.3" font-family="consolas" font-size="14.00">0x33c: BYTE</text>
<text text-anchor="start" x="1453" y="-1121.3" font-family="consolas" font-size="14.00">0x33d: CALLDATALOAD</text>
<text text-anchor="start" x="1453" y="-1106.3" font-family="consolas" font-size="14.00">0x33e: PUSH10 0x87272592d38c4c68add9</text>
<text text-anchor="start" x="1453" y="-1091.3" font-family="consolas" font-size="14.00">0x349: ORIGIN</text>
<text text-anchor="start" x="1453" y="-1076.3" font-family="consolas" font-size="14.00">0x34a: PUSH2 0xf661</text>
<text text-anchor="start" x="1453" y="-1061.3" font-family="consolas" font-size="14.00">0x34d: INVALID</text>
</g>
<!-- block_140538589277536 -->
<g id="node28" class="node">
<title>block_140538589277536</title>
<polygon fill="none" stroke="black" points="1777.5,-1083.5 1777.5,-1136.5 2000.5,-1136.5 2000.5,-1083.5 1777.5,-1083.5"/>
<text text-anchor="start" x="1785.5" y="-1121.3" font-family="consolas" font-size="14.00">0x32f: LOG2</text>
<text text-anchor="start" x="1785.5" y="-1106.3" font-family="consolas" font-size="14.00">0x330: PUSH5 0x6970667358</text>
<text text-anchor="start" x="1785.5" y="-1091.3" font-family="consolas" font-size="14.00">0x336: INVALID</text>
</g>
<!-- block_140538589523824 -->
<g id="node35" class="node">
<title>block_140538589523824</title>
<polygon fill="none" stroke="black" points="738.5,-286.5 738.5,-324.5 969.5,-324.5 969.5,-286.5 738.5,-286.5"/>
<text text-anchor="start" x="746.5" y="-309.3" font-family="consolas" font-size="14.00">0x321: %19 = ADD(%16, #20)</text>
<text text-anchor="start" x="746.5" y="-294.3" font-family="consolas" font-size="14.00">0x326: JUMP(#2f6)</text>
</g>
<!-- block_140538589523392&#45;&gt;block_140538589523824 -->
<g id="edge23" class="edge">
<title>block_140538589523392&#45;&gt;block_140538589523824</title>
<path fill="none" stroke="black" d="M854,-384.85C854,-370.7 854,-350.79 854,-334.59"/>
<polygon fill="black" stroke="black" points="857.5,-334.57 854,-324.57 850.5,-334.57 857.5,-334.57"/>
</g>
<!-- block_140538589277680&#45;&gt;block_140538589277056 -->
<g id="edge24" class="edge">
<title>block_140538589277680&#45;&gt;block_140538589277056</title>
<path fill="none" stroke="black" d="M1337.95,-187.85C1340.55,-175.9 1344.04,-159.85 1347.19,-145.39"/>
<polygon fill="black" stroke="black" points="1350.7,-145.73 1349.4,-135.22 1343.86,-144.24 1350.7,-145.73"/>
</g>
<!-- block_140538589245008&#45;&gt;block_140538589244480 -->
<g id="edge25" class="edge">
<title>block_140538589245008&#45;&gt;block_140538589244480</title>
<path fill="none" stroke="black" d="M1332,-483.35C1332,-469.2 1332,-449.29 1332,-433.09"/>
<polygon fill="black" stroke="black" points="1335.5,-433.07 1332,-423.07 1328.5,-433.07 1335.5,-433.07"/>
</g>
<!-- block_140538589441712&#45;&gt;block_140538589484176 -->
<g id="edge27" class="edge">
<title>block_140538589441712&#45;&gt;block_140538589484176</title>
<path fill="none" stroke="darkgreen" d="M979.79,-828.32C958.54,-813.99 933.55,-797.14 911.46,-782.24"/>
<polygon fill="darkgreen" stroke="darkgreen" points="913.39,-779.33 903.15,-776.64 909.48,-785.13 913.39,-779.33"/>
<text text-anchor="middle" x="959.5" y="-798.8" font-family="consolas" font-size="14.00"> t</text>
</g>
<!-- block_140538589441712&#45;&gt;block_140538589165408 -->
<g id="edge26" class="edge">
<title>block_140538589441712&#45;&gt;block_140538589165408</title>
<path fill="none" stroke="red" d="M1065,-828.32C1085.53,-809.38 1110.86,-786.03 1129.74,-768.63"/>
<polygon fill="red" stroke="red" points="1132.17,-771.15 1137.15,-761.8 1127.42,-766.01 1132.17,-771.15"/>
<text text-anchor="middle" x="1108.5" y="-798.8" font-family="consolas" font-size="14.00"> f</text>
</g>
<!-- block_140538589654848&#45;&gt;block_140538589164976 -->
<g id="edge28" class="edge">
<title>block_140538589654848&#45;&gt;block_140538589164976</title>
<path fill="none" stroke="black" d="M353.87,-187.85C353.13,-175.9 352.13,-159.85 351.23,-145.39"/>
<polygon fill="black" stroke="black" points="354.71,-144.98 350.6,-135.22 347.73,-145.42 354.71,-144.98"/>
</g>
<!-- block_140538589200192 -->
<g id="node34" class="node">
<title>block_140538589200192</title>
<polygon fill="none" stroke="black" points="2019,-1076 2019,-1144 2151,-1144 2151,-1076 2019,-1076"/>
<text text-anchor="start" x="2027" y="-1128.8" font-family="consolas" font-size="14.00">0x337: SLT</text>
<text text-anchor="start" x="2027" y="-1113.8" font-family="consolas" font-size="14.00">0x338: SHA3</text>
<text text-anchor="start" x="2027" y="-1098.8" font-family="consolas" font-size="14.00">0x339: PUSH0</text>
<text text-anchor="start" x="2027" y="-1083.8" font-family="consolas" font-size="14.00">0x33a: INVALID</text>
</g>
<!-- block_140538589568928 -->
<g id="node36" class="node">
<title>block_140538589568928</title>
<polygon fill="none" stroke="black" points="751,-188 751,-226 957,-226 957,-188 751,-188"/>
<text text-anchor="start" x="759" y="-210.8" font-family="consolas" font-size="14.00">0x301: MSTORE(%19, #40)</text>
<text text-anchor="start" x="759" y="-195.8" font-family="consolas" font-size="14.00">0x304: JUMP(#327)</text>
</g>
<!-- block_140538589523824&#45;&gt;block_140538589568928 -->
<g id="edge29" class="edge">
<title>block_140538589523824&#45;&gt;block_140538589568928</title>
<path fill="none" stroke="black" d="M854,-286.35C854,-272.2 854,-252.29 854,-236.09"/>
<polygon fill="black" stroke="black" points="857.5,-236.07 854,-226.07 850.5,-236.07 857.5,-236.07"/>
</g>
<!-- block_140538589568928&#45;&gt;block_140538589615440 -->
<g id="edge30" class="edge">
<title>block_140538589568928&#45;&gt;block_140538589615440</title>
<path fill="none" stroke="black" d="M854,-187.85C854,-177.95 854,-165.25 854,-152.96"/>
<polygon fill="black" stroke="black" points="857.5,-152.8 854,-142.8 850.5,-152.8 857.5,-152.8"/>
</g>
<!-- block_140538589167568&#45;&gt;block_140538589197600 -->
<g id="edge31" class="edge">
<title>block_140538589167568&#45;&gt;block_140538589197600</title>
<path fill="none" stroke="black" d="M1558.07,-483.35C1559.68,-469.2 1561.95,-449.29 1563.8,-433.09"/>
<polygon fill="black" stroke="black" points="1567.29,-433.4 1564.94,-423.07 1560.33,-432.61 1567.29,-433.4"/>
</g>
</g>
</svg>
